<?xml version="1.0" encoding="UTF-8"?>

<svg version="1.2" baseProfile="tiny" width="100mm" height="100mm" viewBox="0 0 10000 10000" preserveAspectRatio="xMidYMid" fill-rule="evenodd" stroke-width="28.222" stroke-linejoin="miter" xmlns="http://www.w3.org/2000/svg" xmlns:xlink="http://www.w3.org/1999/xlink" xml:space="preserve">
	<g visibility="visible" id="MasterSlide_1_Default">
		<desc>Master slide
		</desc>
		<rect fill="none" stroke="none" x="0" y="0" width="10000" height="10000" />
	</g>
	<g visibility="visible" id="Slide_1_page18">
		<g>
			<path fill="rgb(255,102,102)" stroke="none" d="M 3000,1000 L 1000,3000 1000,7000 3000,9000 7000,9000 9000,7000 9000,3000 7000,1000 3000,1000 Z" />
			<path fill="none" stroke="rgb(255,153,153)" id="Drawing_1_0" stroke-width="1000" d="M 3000,1000 L 1000,3000 1000,7000 3000,9000 7000,9000 9000,7000 9000,3000 7000,1000 3000,1000 Z" />
		</g>
		<g id="DrawingGroup_1">
			<g>
				<path fill="rgb(255,255,255)" stroke="none" d="M 2498,4329 L 3158,4329 3158,4196 3626,4196 3626,4329 4305,4329 4305,4140 2498,4140 2498,4329 Z M 4817,5743 L 3843,5743 C 4062,5944 4402,6064 4863,6103 4756,6210 4666,6345 4594,6506 4302,6460 4061,6386 3871,6283 3681,6179 3523,6038 3397,5858 3178,6145 2791,6358 2237,6497 2171,6366 2076,6242 1952,6124 2398,6036 2716,5908 2904,5743 L 2030,5743 2030,5346 3136,5346 C 3145,5317 3151,5269 3155,5201 L 2383,5201 2383,4835 3158,4835 3158,4698 2333,4698 2333,4463 2042,4463 2042,3740 3171,3740 3171,3489 3648,3489 3648,3740 4783,3740 4783,4463 4519,4463 4519,4698 3626,4698 3626,4835 4445,4835 4445,5201 3623,5201 C 3623,5219 3618,5268 3608,5346 L 4817,5346 4817,5743 Z" />
				<rect fill="none" stroke="none" x="1952" y="3489" width="2912" height="3018" />
			</g>
			<g>
				<path fill="rgb(255,255,255)" stroke="none" d="M 5657,5173 L 6023,5449 C 5882,5794 5728,6133 5561,6466 L 5145,6193 C 5331,5883 5502,5543 5657,5173 Z M 5874,4618 L 5607,5002 C 5492,4897 5313,4794 5071,4692 L 5319,4342 C 5553,4418 5738,4510 5874,4618 Z M 6550,5436 L 6550,5548 6789,5548 6789,5436 6550,5436 Z M 6550,5015 L 6550,5126 6789,5126 6789,5015 6550,5015 Z M 7499,5015 L 7226,5015 7226,5126 7499,5126 7499,5015 Z M 7499,5548 L 7499,5436 7226,5436 7226,5548 7499,5548 Z M 7623,4072 L 6435,4072 6435,4215 7623,4215 7623,4072 Z M 7924,5883 L 7582,5883 C 7845,6042 8025,6162 8122,6243 L 7738,6497 C 7626,6391 7412,6237 7096,6035 L 7334,5883 6615,5883 6965,6013 C 6877,6106 6763,6198 6626,6289 6488,6380 6353,6457 6218,6519 6100,6386 5984,6277 5868,6190 6124,6109 6329,6007 6482,5883 L 6144,5883 6144,4683 6789,4683 6789,4575 6274,4575 6274,4333 6017,4333 6017,3824 5781,4156 C 5663,4044 5482,3936 5238,3830 L 5493,3486 C 5706,3561 5880,3647 6017,3747 L 6017,3703 6770,3703 6770,3480 7245,3480 7245,3703 8063,3703 8063,4333 7790,4333 7790,4575 7226,4575 7226,4683 7924,4683 7924,5883 Z" />
				<rect fill="none" stroke="none" x="5071" y="3480" width="3052" height="3040" />
			</g>
		</g>
	</g>
</svg>
