<?xml version="1.0" encoding="UTF-8"?>

<svg version="1.2" baseProfile="tiny" width="100mm" height="100mm" viewBox="0 0 10000 10000" preserveAspectRatio="xMidYMid" fill-rule="evenodd" stroke-width="28.222" stroke-linejoin="miter" xmlns="http://www.w3.org/2000/svg" xmlns:xlink="http://www.w3.org/1999/xlink" xml:space="preserve">
	<g visibility="visible" id="MasterSlide_1_Default">
		<desc>Master slide
		</desc>
		<rect fill="none" stroke="none" x="0" y="0" width="10000" height="10000" />
	</g>
	<g visibility="visible" id="Slide_1_page19">
		<g>
			<path fill="rgb(255,102,102)" stroke="none" d="M 3000,1000 L 1000,3000 1000,7000 3000,9000 7000,9000 9000,7000 9000,3000 7000,1000 3000,1000 Z" />
			<path fill="none" stroke="rgb(255,153,153)" id="Drawing_1_0" stroke-width="1000" d="M 3000,1000 L 1000,3000 1000,7000 3000,9000 7000,9000 9000,7000 9000,3000 7000,1000 3000,1000 Z" />
		</g>
		<g id="DrawingGroup_1">
			<g>
				<path fill="rgb(255,255,255)" stroke="none" d="M 4048,5582 L 4342,5582 C 4241,5396 4143,5172 4048,4912 L 4048,5582 Z M 3310,5582 L 3595,5582 3595,4958 C 3510,5186 3415,5394 3310,5582 Z M 4885,4444 L 4255,4444 C 4340,4684 4448,4914 4578,5135 4708,5356 4845,5539 4987,5684 4931,5725 4870,5781 4803,5850 4736,5919 4682,5984 4643,6044 4581,5969 4509,5864 4426,5727 L 4426,5991 4048,5991 4048,6472 3595,6472 3595,5991 3238,5991 3238,5703 C 3156,5837 3069,5954 2978,6053 2887,5927 2785,5817 2671,5724 L 2671,6493 2234,6493 2234,4946 C 2193,5002 2142,5064 2082,5132 2059,5070 2022,4987 1970,4883 1919,4778 1874,4699 1837,4645 1965,4507 2086,4335 2200,4129 2313,3923 2405,3712 2476,3495 L 2910,3628 C 2831,3847 2752,4040 2671,4205 L 2671,5678 C 2818,5535 2955,5354 3082,5135 3209,4916 3315,4686 3400,4444 L 2842,4444 2842,4003 3595,4003 3595,3501 4048,3501 4048,4003 4885,4003 4885,4444 Z" />
				<rect fill="none" stroke="none" x="1837" y="3495" width="3151" height="2999" />
			</g>
			<g>
				<path fill="rgb(255,255,255)" stroke="none" d="M 5446,5573 L 5632,5554 C 5661,5744 5669,5941 5657,6143 L 5459,6168 C 5473,5988 5468,5793 5443,5582 5424,5938 5366,6183 5266,6317 L 5040,6196 C 5135,6060 5190,5827 5204,5498 L 5446,5545 5446,5573 Z M 5660,5560 L 5843,5529 C 5897,5732 5927,5904 5933,6044 L 5741,6081 C 5737,5941 5710,5767 5660,5560 Z M 6128,5040 L 6503,5040 C 6503,5106 6502,5154 6500,5185 6482,5677 6460,5994 6435,6134 6679,6000 6851,5824 6950,5607 L 6541,5607 6541,4730 7058,4730 7058,4609 6764,4609 6764,4444 C 6665,4527 6588,4584 6534,4615 6503,4536 6446,4429 6361,4292 L 6361,4419 6128,4419 6128,4559 6361,4559 6361,4900 6128,4900 6128,5040 Z M 5604,4900 L 5604,5040 5766,5040 5766,4900 5604,4900 Z M 5766,4419 L 5604,4419 5604,4559 5766,4559 5766,4419 Z M 5766,3961 L 5604,3961 5604,4075 5766,4075 5766,3961 Z M 6956,4258 L 7530,4258 C 7410,4132 7312,4007 7235,3883 7165,4005 7072,4130 6956,4258 Z M 6910,5278 L 7040,5278 C 7050,5200 7056,5125 7058,5055 L 6910,5055 6910,5278 Z M 7620,5278 L 7620,5055 7465,5055 C 7465,5125 7462,5200 7455,5278 L 7620,5278 Z M 8010,5607 L 7576,5607 C 7711,5851 7897,6027 8134,6134 8012,6242 7914,6361 7840,6494 7617,6370 7434,6164 7291,5877 7148,6143 6920,6353 6606,6506 6569,6440 6502,6359 6407,6264 6397,6299 6383,6329 6364,6354 6316,6425 6251,6466 6169,6478 6105,6493 6012,6498 5890,6494 5881,6364 5849,6247 5793,6143 5843,6150 5898,6153 5958,6153 5991,6153 6019,6138 6041,6109 6060,6082 6076,6012 6088,5898 L 5986,5933 C 5969,5815 5929,5678 5865,5523 L 6032,5471 C 6055,5516 6080,5577 6107,5654 6113,5529 6117,5443 6119,5393 L 5229,5393 5229,3592 6423,3592 6423,3961 6128,3961 6128,4075 6361,4075 6361,4224 C 6493,4141 6620,4030 6742,3889 6864,3749 6957,3612 7021,3480 L 7418,3480 C 7517,3633 7631,3772 7758,3899 7885,4025 8013,4117 8144,4175 8057,4292 7980,4426 7914,4575 7852,4537 7794,4496 7741,4450 L 7741,4609 7465,4609 7465,4730 8010,4730 8010,5607 Z" />
				<rect fill="none" stroke="none" x="5040" y="3480" width="3105" height="3027" />
			</g>
		</g>
	</g>
</svg>
