<?xml version="1.0" encoding="UTF-8"?>

<svg version="1.2" baseProfile="tiny" width="100mm" height="100mm" viewBox="0 0 10000 10000" preserveAspectRatio="xMidYMid" fill-rule="evenodd" stroke-width="28.222" stroke-linejoin="miter" xmlns="http://www.w3.org/2000/svg" xmlns:xlink="http://www.w3.org/1999/xlink" xml:space="preserve">
	<g visibility="visible" id="MasterSlide_1_Default">
		<desc>Master slide
		</desc>
		<rect fill="none" stroke="none" x="0" y="0" width="10000" height="10000" />
	</g>
	<g visibility="visible" id="Slide_1_page22">
		<g>
			<path fill="rgb(255,102,102)" stroke="none" d="M 3000,1000 L 1000,3000 1000,7000 3000,9000 7000,9000 9000,7000 9000,3000 7000,1000 3000,1000 Z" />
			<path fill="none" stroke="rgb(255,153,153)" id="Drawing_1_0" stroke-width="1000" d="M 3000,1000 L 1000,3000 1000,7000 3000,9000 7000,9000 9000,7000 9000,3000 7000,1000 3000,1000 Z" />
		</g>
		<g id="DrawingGroup_1">
			<g>
				<path fill="rgb(255,255,255)" stroke="none" d="M 3983,5368 L 2882,5368 2882,5520 3983,5520 3983,5368 Z M 2882,6022 L 3983,6022 3983,5861 2882,5861 2882,6022 Z M 2417,6494 L 2417,4990 4473,4990 4473,6494 3983,6494 3983,6401 2882,6401 2882,6494 2417,6494 Z M 3828,4125 L 3037,4125 C 3093,4243 3129,4345 3146,4432 L 3118,4438 3760,4438 3729,4432 C 3762,4345 3795,4243 3828,4125 Z M 4225,4438 L 4851,4438 4851,4847 1977,4847 1977,4438 2644,4438 C 2623,4341 2587,4240 2535,4134 L 2588,4125 2151,4125 2151,3719 3158,3719 3158,3480 3648,3480 3648,3719 4712,3719 4712,4125 4306,4125 4368,4137 C 4355,4164 4332,4213 4298,4283 4264,4353 4239,4405 4225,4438 Z" />
				<rect fill="none" stroke="none" x="1977" y="3480" width="2875" height="3015" />
			</g>
			<g>
				<path fill="rgb(255,255,255)" stroke="none" d="M 5933,4144 L 5592,4441 C 5548,4371 5481,4289 5390,4196 5299,4103 5206,4020 5111,3945 L 5428,3682 C 5667,3851 5836,4005 5933,4144 Z M 6776,4292 L 6776,4137 6370,4137 6370,4292 6776,4292 Z M 6370,4612 L 6370,4767 6776,4767 6776,4612 6370,4612 Z M 8013,5685 L 7201,5685 C 7466,5852 7767,5980 8106,6069 7995,6170 7893,6300 7800,6457 7450,6339 7124,6154 6820,5902 L 6820,6494 6348,6494 6348,5902 C 6069,6160 5746,6353 5378,6481 5283,6326 5181,6198 5071,6097 5414,6002 5716,5864 5976,5685 L 5167,5685 5167,5288 6348,5288 6348,5114 5945,5114 5945,4795 C 5724,4931 5512,5058 5310,5176 L 5083,4795 C 5257,4716 5508,4591 5837,4420 L 5945,4739 5945,3793 6305,3793 C 6334,3671 6353,3566 6361,3477 L 6882,3533 C 6861,3589 6826,3675 6776,3793 L 7226,3793 7226,4075 C 7395,3916 7528,3771 7623,3638 L 8020,3874 C 7846,4064 7671,4227 7496,4364 L 7226,4187 7226,4550 7362,4389 C 7705,4560 7951,4704 8100,4820 L 7815,5164 C 7691,5054 7495,4923 7226,4770 L 7226,5114 6820,5114 6820,5288 8013,5288 8013,5685 Z" />
				<rect fill="none" stroke="none" x="5071" y="3477" width="3036" height="3018" />
			</g>
		</g>
	</g>
</svg>
