<?xml version="1.0" encoding="UTF-8"?>

<svg version="1.2" baseProfile="tiny" width="100mm" height="100mm" viewBox="0 0 10000 10000" preserveAspectRatio="xMidYMid" fill-rule="evenodd" stroke-width="28.222" stroke-linejoin="miter" xmlns="http://www.w3.org/2000/svg" xmlns:xlink="http://www.w3.org/1999/xlink" xml:space="preserve">
	<g visibility="visible" id="MasterSlide_1_Default">
		<desc>Master slide
		</desc>
		<rect fill="none" stroke="none" x="0" y="0" width="10000" height="10000" />
	</g>
	<g visibility="visible" id="Slide_1_page16">
		<g>
			<path fill="rgb(255,102,102)" stroke="none" d="M 3000,1000 L 1000,3000 1000,7000 3000,9000 7000,9000 9000,7000 9000,3000 7000,1000 3000,1000 Z" />
			<path fill="none" stroke="rgb(255,153,153)" id="Drawing_1_0" stroke-width="1000" d="M 3000,1000 L 1000,3000 1000,7000 3000,9000 7000,9000 9000,7000 9000,3000 7000,1000 3000,1000 Z" />
		</g>
		<g id="DrawingGroup_1">
			<g>
				<path fill="rgb(255,255,255)" stroke="none" d="M 3605,6066 C 3743,5987 3862,5889 3961,5771 3876,5625 3801,5454 3735,5260 3716,5582 3673,5851 3605,6066 Z M 4358,4835 L 4002,4835 C 4057,5029 4126,5204 4206,5359 4270,5212 4321,5038 4358,4835 Z M 2712,4193 L 2712,3967 2473,3967 2473,4193 2712,4193 Z M 2712,4757 L 2712,4528 2473,4528 2473,4757 2712,4757 Z M 2712,5322 L 2712,5092 2473,5092 2473,5322 2712,5322 Z M 4560,4426 L 4829,4481 C 4784,5007 4670,5439 4488,5778 4631,5933 4790,6053 4966,6140 4916,6184 4861,6242 4801,6314 4742,6386 4696,6450 4665,6506 4496,6407 4349,6287 4225,6146 4099,6281 3951,6395 3781,6488 3726,6376 3655,6269 3571,6168 3527,6296 3468,6410 3394,6509 3352,6474 3294,6432 3217,6382 3141,6333 3076,6297 3025,6277 3066,6217 3093,6174 3105,6150 L 2833,6280 C 2791,6164 2716,6022 2606,5855 2501,6130 2372,6349 2219,6512 2113,6421 1993,6342 1859,6274 2018,6127 2136,5930 2212,5684 L 2631,5787 2625,5809 2910,5684 2067,5684 2067,3604 3136,3604 3136,5684 2947,5684 C 3032,5796 3104,5910 3164,6026 3270,5767 3322,5384 3322,4875 L 3322,3651 4829,3651 4829,4066 3747,4066 3747,4435 4482,4435 4560,4426 Z" />
				<rect fill="none" stroke="none" x="1859" y="3604" width="3108" height="2909" />
			</g>
			<g>
				<path fill="rgb(255,255,255)" stroke="none" d="M 6327,4261 L 6327,4118 5170,4118 5170,3700 6327,3700 6327,3489 6810,3489 6810,3700 8004,3700 8004,4118 6810,4118 6810,4261 7710,4261 7710,4661 5480,4661 5480,4261 6327,4261 Z M 7992,5489 L 7524,5489 7524,5176 5635,5176 5635,5489 5189,5489 5189,4766 7992,4766 7992,5489 Z M 5930,5241 L 6410,5241 C 6402,5359 6391,5459 6378,5543 6364,5627 6343,5714 6313,5804 6283,5894 6243,5971 6193,6036 6144,6101 6080,6165 6003,6227 5925,6289 5830,6343 5716,6390 5602,6436 5470,6477 5319,6512 5298,6450 5264,6380 5215,6301 5167,6223 5119,6160 5071,6112 5224,6083 5352,6048 5455,6007 5559,5965 5640,5922 5699,5878 5758,5834 5804,5774 5837,5700 5870,5625 5892,5558 5902,5497 5912,5436 5922,5350 5930,5241 Z M 7300,6059 L 7564,6059 C 7613,6059 7646,6038 7662,5994 7677,5951 7688,5853 7694,5700 7787,5774 7925,5832 8106,5873 8084,6107 8037,6265 7967,6348 7897,6430 7778,6472 7610,6472 L 7232,6472 C 7027,6472 6890,6434 6820,6359 6749,6283 6714,6145 6714,5945 L 6714,5244 7176,5244 7176,5938 C 7176,5992 7184,6026 7198,6039 7212,6053 7247,6059 7300,6059 Z" />
				<rect fill="none" stroke="none" x="5071" y="3489" width="3036" height="3024" />
			</g>
		</g>
	</g>
</svg>
