<?xml version="1.0" encoding="UTF-8"?>

<svg version="1.2" baseProfile="tiny" width="100mm" height="100mm" viewBox="0 0 10000 10000" preserveAspectRatio="xMidYMid" fill-rule="evenodd" stroke-width="28.222" stroke-linejoin="miter" xmlns="http://www.w3.org/2000/svg" xmlns:xlink="http://www.w3.org/1999/xlink" xml:space="preserve">
 <g visibility="visible" id="MasterSlide_1_Default">
  <desc>Master slide
  </desc>
  <rect fill="none" stroke="none" x="0" y="0" width="10000" height="10000"/>
 </g>
 <g visibility="visible" id="Slide_1_page23">
  <g>
   <path fill="rgb(255,102,102)" stroke="none" d="M 3000,1000 L 1000,3000 1000,7000 3000,9000 7000,9000 9000,7000 9000,3000 7000,1000 3000,1000 Z"/>
   <path fill="none" stroke="rgb(255,153,153)" id="Drawing_1_0" stroke-width="1000" d="M 3000,1000 L 1000,3000 1000,7000 3000,9000 7000,9000 9000,7000 9000,3000 7000,1000 3000,1000 Z"/>
  </g>
  <g id="DrawingGroup_1">
   <g>
    <path fill="rgb(255,255,255)" stroke="none" d="M 3757,4330 L 3631,4383 3819,4499 C 3785,4560 3758,4618 3738,4673 3668,4867 3574,5050 3455,5221 3530,5269 3597,5315 3658,5357 L 3424,5659 C 3391,5629 3326,5578 3228,5508 3017,5733 2766,5901 2475,6013 L 2178,5756 C 2482,5661 2736,5512 2938,5310 2838,5244 2719,5170 2583,5091 L 2802,4845 C 2985,4944 3105,5010 3162,5043 3262,4896 3326,4767 3352,4656 L 2808,4656 C 2636,4878 2450,5059 2252,5198 L 1975,4985 C 2063,4930 2144,4871 2218,4809 2292,4747 2356,4684 2411,4619 2466,4554 2510,4500 2542,4455 2575,4410 2609,4359 2645,4301 2696,4219 2733,4135 2756,4049 L 3129,4162 C 3086,4222 3043,4290 3000,4367 L 3352,4367 C 3410,4367 3466,4361 3521,4350 3470,4247 3428,4171 3393,4121 L 3592,4040 C 3643,4115 3698,4211 3757,4330 Z M 3654,4020 L 3852,3939 C 3914,4029 3970,4124 4020,4226 L 3819,4311 C 3761,4190 3706,4093 3654,4020 Z"/>
    <rect fill="none" stroke="none" x="1975" y="3939" width="2046" height="2075"/>
   </g>
   <g>
    <path fill="rgb(255,255,255)" stroke="none" d="M 4221,4414 L 4465,4154 C 4545,4208 4642,4281 4756,4374 4869,4467 4956,4546 5015,4611 L 4753,4880 C 4696,4818 4612,4738 4500,4640 4389,4542 4296,4467 4221,4414 Z M 4370,5899 L 4151,5560 C 4450,5520 4714,5434 4943,5301 5126,5197 5288,5068 5430,4917 5571,4765 5679,4612 5753,4456 L 5952,4818 C 5866,4968 5751,5113 5607,5254 5463,5394 5303,5516 5127,5620 4877,5766 4625,5859 4370,5899 Z"/>
    <rect fill="none" stroke="none" x="4151" y="4154" width="1802" height="1746"/>
   </g>
   <g>
    <path fill="rgb(255,255,255)" stroke="none" d="M 7649,4198 L 7858,4353 C 7820,4408 7791,4459 7771,4506 7676,4718 7570,4905 7452,5066 7550,5152 7655,5252 7768,5368 7880,5484 7966,5580 8027,5656 L 7734,5912 C 7600,5723 7431,5530 7227,5333 6984,5584 6726,5776 6452,5910 L 6183,5633 C 6344,5575 6503,5490 6660,5378 6816,5267 6946,5153 7049,5037 7198,4869 7297,4710 7347,4560 L 6687,4560 C 6667,4560 6576,4565 6417,4576 L 6417,4212 C 6497,4223 6587,4229 6687,4229 L 7394,4229 C 7502,4229 7587,4219 7649,4198 Z"/>
    <rect fill="none" stroke="none" x="6183" y="4198" width="1845" height="1715"/>
   </g>
  </g>
 </g>
</svg>