<?xml version="1.0" encoding="UTF-8"?>

<svg version="1.2" baseProfile="tiny" width="100mm" height="100mm" viewBox="0 0 10000 10000" preserveAspectRatio="xMidYMid" fill-rule="evenodd" stroke-width="28.222" stroke-linejoin="miter" xmlns="http://www.w3.org/2000/svg" xmlns:xlink="http://www.w3.org/1999/xlink" xml:space="preserve">
	<g visibility="visible" id="MasterSlide_1_Default">
		<desc>Master slide
		</desc>
		<rect fill="none" stroke="none" x="0" y="0" width="10000" height="10000" />
	</g>
	<g visibility="visible" id="Slide_1_page24">
		<g>
			<path fill="rgb(153,51,255)" stroke="none" d="M 3000,1000 L 1000,3000 1000,7000 3000,9000 7000,9000 9000,7000 9000,3000 7000,1000 3000,1000 Z" />
			<path fill="none" stroke="rgb(153,153,255)" id="Drawing_1_0" stroke-width="1000" d="M 3000,1000 L 1000,3000 1000,7000 3000,9000 7000,9000 9000,7000 9000,3000 7000,1000 3000,1000 Z" />
		</g>
		<g id="DrawingGroup_1">
			<g>
				<path fill="rgb(255,255,255)" stroke="none" d="M 2445,4376 L 2445,4788 2011,4788 2011,3973 2414,3973 C 2360,3875 2296,3779 2222,3684 L 2615,3511 C 2758,3668 2852,3803 2898,3917 L 2774,3973 3192,3973 C 3145,3849 3085,3729 3012,3613 L 3422,3461 C 3541,3622 3623,3771 3667,3907 L 3493,3973 3930,3973 C 4038,3807 4118,3651 4172,3504 L 4677,3647 C 4580,3786 4501,3894 4439,3973 L 4823,3973 4823,4788 4367,4788 4367,4376 2445,4376 Z M 4848,5281 L 4848,5703 3651,5703 3651,6022 C 3651,6138 3634,6227 3601,6289 3568,6351 3510,6398 3428,6431 3306,6477 3092,6500 2786,6500 2755,6357 2694,6208 2603,6053 2721,6059 2885,6062 3096,6062 3127,6062 3148,6058 3160,6050 3171,6042 3177,6027 3177,6007 L 3177,5703 1986,5703 1986,5281 3177,5281 3177,5092 3378,5092 C 3434,5053 3486,5012 3533,4971 L 2575,4971 2575,4574 3939,4574 4039,4552 4327,4773 C 4147,4975 3957,5145 3756,5281 L 4848,5281 Z" />
				<rect fill="none" stroke="none" x="1986" y="3461" width="2863" height="3040" />
			</g>
			<g>
				<path fill="rgb(255,255,255)" stroke="none" d="M 6070,5402 L 6532,5402 6532,5008 6070,5008 6070,5402 Z M 6532,4255 L 5902,4255 C 5834,4372 5763,4481 5688,4580 L 6532,4580 6532,4255 Z M 8060,5402 L 8060,5845 7006,5845 7006,6496 6532,6496 6532,5845 5115,5845 5115,5402 5608,5402 5608,4689 C 5558,4747 5520,4789 5493,4816 5365,4696 5232,4595 5096,4512 5232,4394 5357,4242 5471,4055 5585,3867 5674,3672 5738,3467 L 6209,3588 C 6193,3638 6164,3712 6122,3811 L 7874,3811 7874,4255 7006,4255 7006,4580 7797,4580 7797,5008 7006,5008 7006,5402 8060,5402 Z" />
				<rect fill="none" stroke="none" x="5096" y="3467" width="2965" height="3030" />
			</g>
		</g>
	</g>
</svg>
