<?xml version="1.0" encoding="UTF-8"?>

<svg version="1.2" baseProfile="tiny" width="100mm" height="100mm" viewBox="0 0 10000 10000" preserveAspectRatio="xMidYMid" fill-rule="evenodd" stroke-width="28.222" stroke-linejoin="miter" xmlns="http://www.w3.org/2000/svg" xmlns:xlink="http://www.w3.org/1999/xlink" xml:space="preserve">
	<g visibility="visible" id="MasterSlide_1_Default">
		<desc>Master slide
		</desc>
		<rect fill="none" stroke="none" x="0" y="0" width="10000" height="10000" />
	</g>
	<g visibility="visible" id="Slide_1_page14">
		<g>
			<path fill="rgb(255,153,0)" stroke="none" d="M 3000,1000 L 1000,3000 1000,7000 3000,9000 7000,9000 9000,7000 9000,3000 7000,1000 3000,1000 Z" />
			<path fill="none" stroke="rgb(255,204,0)" id="Drawing_1_0" stroke-width="1000" d="M 3000,1000 L 1000,3000 1000,7000 3000,9000 7000,9000 9000,7000 9000,3000 7000,1000 3000,1000 Z" />
		</g>
		<g id="DrawingGroup_1">
			<g>
				<path fill="rgb(255,255,255)" stroke="none" d="M 3617,5951 L 3617,5818 3192,5818 3192,5951 3617,5951 Z M 4724,5027 L 4724,6032 C 4724,6137 4712,6220 4687,6280 4662,6340 4618,6386 4554,6420 4461,6469 4291,6494 4045,6494 4037,6432 4016,6351 3983,6252 L 3192,6252 3192,6389 2796,6389 2796,5517 4020,5517 4020,6066 C 4111,6070 4172,6070 4203,6066 4240,6066 4259,6052 4259,6023 L 4259,5406 2579,5406 2579,6500 2126,6500 2126,5027 4724,5027 Z M 3825,4631 L 3825,4503 2966,4503 2966,4631 3825,4631 Z M 4293,4206 L 4293,4931 2526,4931 2526,4206 4293,4206 Z M 3630,3722 L 4814,3722 4814,4113 2008,4113 2008,3722 3152,3722 3152,3474 3630,3474 3630,3722 Z" />
				<rect fill="none" stroke="none" x="2008" y="3474" width="2807" height="3027" />
			</g>
			<g>
				<path fill="rgb(255,255,255)" stroke="none" d="M 5431,3911 C 6204,3911 6977,3911 7750,3911 7750,4082 7750,4252 7750,4423 6977,4423 6204,4423 5431,4423 5431,4252 5431,4082 5431,3911 Z M 5167,5728 C 6116,5728 7065,5728 8013,5728 8013,5907 8013,6086 8013,6264 7065,6264 6116,6264 5167,6264 5167,6086 5167,5907 5167,5728 Z" />
				<rect fill="none" stroke="none" x="5167" y="3911" width="2847" height="2354" />
			</g>
		</g>
	</g>
</svg>
