<?xml version="1.0" encoding="UTF-8"?>

<svg version="1.2" baseProfile="tiny" width="100mm" height="100mm" viewBox="0 0 10000 10000" preserveAspectRatio="xMidYMid" fill-rule="evenodd" stroke-width="28.222" stroke-linejoin="miter" xmlns="http://www.w3.org/2000/svg" xmlns:xlink="http://www.w3.org/1999/xlink" xml:space="preserve">
	<g visibility="visible" id="MasterSlide_1_Default">
		<desc>Master slide
		</desc>
		<rect fill="none" stroke="none" x="0" y="0" width="10000" height="10000" />
	</g>
	<g visibility="visible" id="Slide_1_page13">
		<g>
			<path fill="rgb(255,153,0)" stroke="none" d="M 3000,1000 L 1000,3000 1000,7000 3000,9000 7000,9000 9000,7000 9000,3000 7000,1000 3000,1000 Z" />
			<path fill="none" stroke="rgb(255,204,0)" id="Drawing_1_0" stroke-width="1000" d="M 3000,1000 L 1000,3000 1000,7000 3000,9000 7000,9000 9000,7000 9000,3000 7000,1000 3000,1000 Z" />
		</g>
		<g id="DrawingGroup_1">
			<g>
				<path fill="rgb(255,255,255)" stroke="none" d="M 3617,5951 L 3617,5818 3192,5818 3192,5951 3617,5951 Z M 4724,5027 L 4724,6032 C 4724,6137 4712,6220 4687,6280 4662,6340 4618,6386 4554,6420 4461,6469 4291,6494 4045,6494 4037,6432 4016,6351 3983,6252 L 3192,6252 3192,6389 2796,6389 2796,5517 4020,5517 4020,6066 C 4111,6070 4172,6070 4203,6066 4240,6066 4259,6052 4259,6023 L 4259,5406 2579,5406 2579,6500 2126,6500 2126,5027 4724,5027 Z M 3825,4631 L 3825,4503 2966,4503 2966,4631 3825,4631 Z M 4293,4206 L 4293,4931 2526,4931 2526,4206 4293,4206 Z M 3630,3722 L 4814,3722 4814,4113 2008,4113 2008,3722 3152,3722 3152,3474 3630,3474 3630,3722 Z" />
				<rect fill="none" stroke="none" x="2008" y="3474" width="2807" height="3027" />
			</g>
			<g>
				<path fill="rgb(255,255,255)" stroke="none" d="M 5112,4708 C 6098,4708 7084,4708 8070,4708 8070,4876 8070,5045 8070,5213 7084,5213 6098,5213 5112,5213 5112,5045 5112,4876 5112,4708 Z" />
				<rect fill="none" stroke="none" x="5112" y="4708" width="2959" height="506" />
			</g>
		</g>
	</g>
</svg>
