<?xml version="1.0" encoding="UTF-8"?>

<svg version="1.2" baseProfile="tiny" width="100mm" height="100mm" viewBox="0 0 10000 10000" preserveAspectRatio="xMidYMid" fill-rule="evenodd" stroke-width="28.222" stroke-linejoin="miter" xmlns="http://www.w3.org/2000/svg" xmlns:xlink="http://www.w3.org/1999/xlink" xml:space="preserve">
	<g visibility="visible" id="MasterSlide_1_Default">
		<desc>Master slide
		</desc>
		<rect fill="none" stroke="none" x="0" y="0" width="10000" height="10000" />
	</g>
	<g visibility="visible" id="Slide_1_page28">
		<g>
			<path fill="rgb(153,51,255)" stroke="none" d="M 3000,1000 L 1000,3000 1000,7000 3000,9000 7000,9000 9000,7000 9000,3000 7000,1000 3000,1000 Z" />
			<path fill="none" stroke="rgb(153,153,255)" id="Drawing_1_0" stroke-width="1000" d="M 3000,1000 L 1000,3000 1000,7000 3000,9000 7000,9000 9000,7000 9000,3000 7000,1000 3000,1000 Z" />
		</g>
		<g id="DrawingGroup_1">
			<g>
				<path fill="rgb(255,255,255)" stroke="none" d="M 2395,4483 L 2381,4161 C 2463,4168 2536,4171 2598,4171 2643,4171 2737,4167 2879,4159 3021,4150 3124,4143 3189,4136 3263,4128 3318,4118 3352,4107 L 3551,4341 C 3482,4383 3417,4429 3356,4477 3301,4520 3224,4581 3125,4662 3026,4743 2960,4795 2928,4820 3247,4790 3520,4775 3747,4775 L 3749,5075 C 3512,5059 3331,5060 3205,5077 3112,5089 3034,5122 2973,5177 2912,5231 2881,5297 2881,5374 2881,5502 2979,5576 3177,5596 3292,5607 3401,5608 3503,5600 L 3439,5935 C 3158,5946 2940,5909 2787,5825 2633,5741 2556,5609 2556,5430 2556,5317 2589,5219 2656,5134 2516,5144 2326,5170 2085,5213 L 2056,4905 C 2100,4901 2168,4893 2261,4881 2353,4870 2408,4863 2426,4862 2558,4780 2736,4639 2959,4438 2946,4439 2890,4443 2792,4449 2694,4455 2629,4460 2598,4463 2569,4465 2501,4472 2395,4483 Z" />
				<rect fill="none" stroke="none" x="2055" y="4107" width="1695" height="1831" />
			</g>
			<g>
				<path fill="rgb(255,255,255)" stroke="none" d="M 4660,4998 C 4705,4866 4740,4708 4768,4524 4623,4564 4510,4641 4427,4754 4344,4867 4303,4979 4303,5091 4303,5178 4316,5246 4342,5295 4368,5343 4401,5368 4439,5368 4481,5368 4518,5338 4552,5279 4586,5220 4622,5126 4660,4998 Z M 5028,5903 L 4836,5604 C 4890,5597 4958,5584 5041,5564 5177,5530 5285,5467 5365,5376 5445,5285 5485,5172 5485,5037 5485,4901 5453,4787 5389,4696 5325,4605 5233,4545 5113,4516 5081,4717 5041,4900 4991,5064 4926,5283 4847,5455 4751,5579 4656,5703 4549,5765 4429,5765 4301,5765 4193,5703 4104,5579 4016,5455 3972,5303 3972,5124 3972,4872 4068,4655 4260,4475 4453,4294 4687,4204 4964,4204 5226,4204 5437,4284 5596,4445 5755,4605 5835,4807 5835,5050 5835,5276 5767,5463 5631,5613 5495,5762 5294,5859 5028,5903 Z" />
				<rect fill="none" stroke="none" x="3972" y="4204" width="1864" height="1700" />
			</g>
			<g>
				<path fill="rgb(255,255,255)" stroke="none" d="M 7655,4671 L 7502,4733 7502,5074 C 7552,5077 7587,5078 7608,5078 7631,5078 7644,5064 7647,5037 7651,5013 7654,4891 7655,4671 Z M 7217,5690 L 7583,5690 C 7642,5690 7681,5673 7701,5639 7720,5604 7734,5527 7744,5407 7821,5461 7915,5500 8025,5525 8006,5693 7967,5808 7909,5871 7851,5934 7752,5965 7612,5965 L 7188,5965 C 7022,5965 6910,5936 6852,5877 6793,5819 6764,5707 6764,5543 L 6764,5024 6632,5078 6522,4830 6522,5996 6218,5996 6218,4975 C 6177,5024 6146,5060 6125,5082 6082,4968 6029,4862 5966,4764 6057,4672 6143,4557 6225,4420 6307,4283 6374,4142 6425,3997 L 6710,4088 C 6662,4218 6599,4356 6522,4504 L 6522,4803 6764,4708 6764,4239 7070,4239 7070,4586 7213,4532 7213,4001 7502,4001 7502,4417 7643,4363 7688,4332 7742,4295 7953,4373 7942,4419 C 7940,4807 7936,5035 7930,5101 7925,5210 7886,5282 7814,5318 7759,5346 7674,5358 7558,5355 7552,5253 7534,5164 7502,5087 L 7502,5477 7213,5477 7213,4847 7070,4905 7070,5543 C 7070,5608 7078,5649 7095,5665 7111,5682 7152,5690 7217,5690 Z" />
				<rect fill="none" stroke="none" x="5966" y="3997" width="2060" height="2000" />
			</g>
		</g>
	</g>
</svg>
