<?xml version="1.0" encoding="UTF-8"?>

<svg version="1.2" baseProfile="tiny" width="100mm" height="100mm" viewBox="0 0 10000 10000" preserveAspectRatio="xMidYMid" fill-rule="evenodd" stroke-width="28.222" stroke-linejoin="miter" xmlns="http://www.w3.org/2000/svg" xmlns:xlink="http://www.w3.org/1999/xlink" xml:space="preserve">
 <g visibility="visible" id="MasterSlide_1_Default">
  <desc>Master slide
  </desc>
  <rect fill="none" stroke="none" x="0" y="0" width="10000" height="10000"/>
 </g>
 <g visibility="visible" id="Slide_1_page4">
  <g>
   <path fill="rgb(255,255,255)" stroke="none" d="M 4300,9000 L 4300,7500 2000,7500 2000,6500 4300,6500 4300,5500 2000,5500 2000,4500 8000,4500 8000,5500 5700,5500 5700,6500 8000,6500 8000,7500 5700,7500 5700,9000 4300,9000 Z"/>
   <rect fill="none" stroke="none" x="2000" y="4500" width="6001" height="4501"/>
  </g>
  <g>
   <path fill="rgb(255,255,255)" stroke="none" d="M 4300,5500 L 1500,1000 3000,1000 5000,4500 7000,1000 8500,1000 5700,5500 4300,5500 Z"/>
   <rect fill="none" stroke="none" x="1500" y="1000" width="7002" height="4501"/>
  </g>
 </g>
</svg>