<?xml version="1.0" encoding="UTF-8"?>

<svg version="1.2" baseProfile="tiny" width="100mm" height="100mm" viewBox="0 0 10000 10000" preserveAspectRatio="xMidYMid" fill-rule="evenodd" stroke-width="28.222" stroke-linejoin="miter" xmlns="http://www.w3.org/2000/svg" xmlns:xlink="http://www.w3.org/1999/xlink" xml:space="preserve">
 <g visibility="visible" id="MasterSlide_1_Default">
  <desc>Master slide
  </desc>
  <rect fill="none" stroke="none" x="0" y="0" width="10000" height="10000"/>
 </g>
 <g visibility="visible" id="Slide_1_page2">
  <g>
   <path fill="rgb(255,255,255)" stroke="none" d="M 4999,0 C 6984,0 8500,1516 8500,3500 8500,5485 6750,8250 5000,10000 3250,8250 1500,5485 1500,3500 1500,1516 3015,0 4999,0 Z M 4997,1749 C 5990,1749 6747,2504 6747,3497 6747,4490 5990,5247 4997,5247 4005,5247 3249,4490 3249,3497 3249,2504 4005,1749 4997,1749 Z"/>
   <rect fill="none" stroke="none" x="1500" y="0" width="7002" height="10001"/>
  </g>
 </g>
</svg>