<?xml version="1.0" encoding="UTF-8"?>

<svg version="1.2" baseProfile="tiny" width="100mm" height="100mm" viewBox="0 0 10000 10000" preserveAspectRatio="xMidYMid" fill-rule="evenodd" stroke-width="28.222" stroke-linejoin="miter" xmlns="http://www.w3.org/2000/svg" xmlns:xlink="http://www.w3.org/1999/xlink" xml:space="preserve">
	<g visibility="visible" id="MasterSlide_1_Default">
		<desc>Master slide
		</desc>
		<rect fill="none" stroke="none" x="0" y="0" width="10000" height="10000" />
	</g>
	<g visibility="visible" id="Slide_1_page17">
		<g>
			<path fill="rgb(255,102,102)" stroke="none" d="M 3000,1000 L 1000,3000 1000,7000 3000,9000 7000,9000 9000,7000 9000,3000 7000,1000 3000,1000 Z" />
			<path fill="none" stroke="rgb(255,153,153)" id="Drawing_1_0" stroke-width="1000" d="M 3000,1000 L 1000,3000 1000,7000 3000,9000 7000,9000 9000,7000 9000,3000 7000,1000 3000,1000 Z" />
		</g>
		<g id="DrawingGroup_1">
			<g>
				<path fill="rgb(255,255,255)" stroke="none" d="M 3354,5610 L 3354,5954 C 3397,5950 3460,5943 3543,5932 3626,5922 3689,5914 3732,5908 3670,5819 3614,5720 3565,5610 L 3354,5610 Z M 2681,4525 L 2681,4559 C 2681,4799 2672,5021 2653,5226 L 3084,5226 3084,5067 2725,5067 2725,4689 3084,4689 3084,4525 2681,4525 Z M 4250,3995 L 2681,3995 2681,4137 4250,4137 4250,3995 Z M 3887,4689 L 3887,4525 3506,4525 3506,4689 3887,4689 Z M 3887,5226 L 3887,5067 3506,5067 3506,5226 3887,5226 Z M 4352,5610 L 4011,5610 C 4053,5672 4093,5721 4132,5756 4157,5743 4230,5695 4352,5610 Z M 4563,5610 L 4796,5768 C 4699,5836 4583,5905 4448,5973 4577,6037 4732,6085 4914,6118 4868,6162 4819,6221 4766,6297 4714,6372 4673,6440 4644,6500 4299,6413 4030,6259 3838,6038 L 3850,6289 C 3687,6314 3300,6370 2690,6456 L 2625,6038 C 2636,6036 2678,6031 2752,6024 2827,6017 2886,6011 2929,6007 L 2929,5610 2644,5610 2644,5315 C 2586,5840 2469,6238 2294,6509 2246,6472 2179,6429 2092,6379 2005,6329 1933,6294 1875,6274 1949,6160 2011,6030 2061,5883 2111,5736 2146,5581 2166,5416 2187,5252 2201,5107 2207,4982 2213,4857 2216,4716 2216,4559 L 2216,3607 4718,3607 4718,4525 4315,4525 4315,4689 4728,4689 4728,5067 4315,5067 4315,5226 4876,5226 4876,5610 4563,5610 Z" />
				<rect fill="none" stroke="none" x="1875" y="3607" width="3040" height="2903" />
			</g>
			<g>
				<path fill="rgb(255,255,255)" stroke="none" d="M 7717,3669 L 7717,4125 5453,4125 5453,3669 7717,3669 Z M 5562,5080 L 6052,5207 C 5983,5391 5898,5572 5794,5751 5691,5930 5585,6080 5478,6202 5354,6099 5210,6007 5047,5926 5152,5827 5251,5701 5343,5548 5435,5395 5508,5239 5562,5080 Z M 8024,4891 L 6858,4891 6858,5973 C 6858,6099 6842,6196 6810,6264 6778,6332 6720,6385 6638,6422 6516,6474 6293,6500 5971,6500 5946,6339 5892,6175 5810,6010 6012,6022 6165,6025 6269,6019 6322,6019 6349,6000 6349,5960 L 6349,4891 5162,4891 5162,4432 8024,4432 8024,4891 Z M 7109,5238 L 7546,5055 C 7804,5441 7972,5759 8048,6007 L 7565,6215 C 7505,5964 7353,5639 7109,5238 Z" />
				<rect fill="none" stroke="none" x="5047" y="3669" width="3002" height="2832" />
			</g>
		</g>
	</g>
</svg>
