<?xml version="1.0" encoding="UTF-8"?>

<svg version="1.2" baseProfile="tiny" width="100mm" height="100mm" viewBox="0 0 10000 10000" preserveAspectRatio="xMidYMid" fill-rule="evenodd" stroke-width="28.222" stroke-linejoin="miter" xmlns="http://www.w3.org/2000/svg" xmlns:xlink="http://www.w3.org/1999/xlink" xml:space="preserve">
	<g visibility="visible" id="MasterSlide_1_Default">
		<desc>Master slide
		</desc>
		<rect fill="none" stroke="none" x="0" y="0" width="10000" height="10000" />
	</g>
	<g visibility="visible" id="Slide_1_page21">
		<g>
			<path fill="rgb(255,102,102)" stroke="none" d="M 3000,1000 L 1000,3000 1000,7000 3000,9000 7000,9000 9000,7000 9000,3000 7000,1000 3000,1000 Z" />
			<path fill="none" stroke="rgb(255,153,153)" id="Drawing_1_0" stroke-width="1000" d="M 3000,1000 L 1000,3000 1000,7000 3000,9000 7000,9000 9000,7000 9000,3000 7000,1000 3000,1000 Z" />
		</g>
		<g id="DrawingGroup_1">
			<g>
				<path fill="rgb(255,255,255)" stroke="none" d="M 2901,3771 L 3206,4001 C 3089,4289 2961,4571 2821,4848 L 2475,4621 C 2630,4363 2772,4079 2901,3771 Z M 3082,3308 L 2860,3629 C 2764,3541 2615,3455 2413,3370 L 2620,3078 C 2814,3142 2969,3219 3082,3308 Z M 3646,3990 L 3646,4084 3845,4084 3845,3990 3646,3990 Z M 3646,3639 L 3646,3732 3845,3732 3845,3639 3646,3639 Z M 4436,3639 L 4209,3639 4209,3732 4436,3732 4436,3639 Z M 4436,4084 L 4436,3990 4209,3990 4209,4084 4436,4084 Z M 4540,2854 L 3550,2854 3550,2972 4540,2972 4540,2854 Z M 4790,4363 L 4506,4363 C 4725,4495 4875,4595 4956,4662 L 4635,4874 C 4542,4786 4364,4658 4100,4489 L 4299,4363 3700,4363 3992,4471 C 3918,4549 3823,4625 3709,4701 3594,4777 3481,4841 3369,4892 3271,4782 3174,4691 3077,4618 3291,4551 3461,4466 3589,4363 L 3307,4363 3307,3363 3845,3363 3845,3272 3416,3272 3416,3071 3201,3071 3201,2647 3005,2923 C 2907,2830 2756,2740 2553,2652 L 2764,2365 C 2942,2427 3087,2500 3201,2582 L 3201,2546 3829,2546 3829,2360 4224,2360 4224,2546 4907,2546 4907,3071 4679,3071 4679,3272 4209,3272 4209,3363 4790,3363 4790,4363 Z" />
				<rect fill="none" stroke="none" x="2412" y="2360" width="2545" height="2533" />
			</g>
			<g>
				<path fill="rgb(255,255,255)" stroke="none" d="M 7000,2668 L 7000,4182 6662,4182 6662,2668 7000,2668 Z M 5920,4618 C 5969,4618 6001,4605 6018,4577 6034,4558 6044,4531 6050,4494 5962,4553 5896,4594 5853,4616 5870,4618 5893,4618 5920,4618 Z M 5440,4567 C 5545,4538 5651,4497 5758,4445 5864,4394 5950,4340 6016,4285 6009,4268 6003,4255 5998,4246 5888,4320 5761,4385 5618,4440 5585,4370 5546,4314 5502,4272 5486,4372 5466,4470 5440,4567 Z M 6398,3895 L 6610,4073 C 6464,4171 6366,4234 6318,4262 6509,4369 6630,4439 6680,4474 L 6502,4724 C 6467,4688 6409,4633 6326,4559 6312,4661 6278,4735 6223,4781 6159,4842 6079,4873 5982,4874 5920,4874 5873,4873 5840,4872 5833,4794 5814,4721 5783,4652 5673,4707 5588,4745 5528,4766 5503,4714 5470,4662 5427,4611 5397,4704 5361,4789 5318,4867 5289,4841 5244,4809 5183,4772 5121,4735 5072,4709 5034,4693 5156,4478 5217,4123 5217,3629 L 5217,2828 5680,2828 5680,2373 6037,2373 6037,2479 6556,2479 6556,2737 6037,2737 6037,2828 6367,2828 6419,2820 6641,2859 C 6612,3048 6572,3208 6522,3337 L 6254,3280 C 6274,3202 6288,3140 6295,3091 L 6006,3091 6006,3179 6228,3156 6254,3350 6006,3381 C 6007,3407 6012,3423 6021,3429 6030,3435 6050,3438 6083,3438 L 6287,3438 C 6311,3438 6328,3432 6338,3420 6347,3407 6354,3382 6357,3342 6416,3373 6489,3397 6577,3414 6566,3492 6542,3546 6504,3576 6466,3606 6405,3621 6321,3621 L 6039,3621 C 5925,3621 5847,3606 5803,3577 5759,3548 5734,3494 5729,3414 L 5587,3430 5561,3228 5729,3210 5729,3091 5540,3091 5540,3629 C 5540,3872 5528,4085 5502,4270 5652,4235 5784,4181 5900,4107 L 5876,4084 C 5766,4128 5684,4158 5631,4171 5607,4109 5574,4051 5533,3996 5636,3973 5742,3938 5851,3890 L 5584,3890 5584,3660 6597,3660 6597,3890 6207,3890 C 6164,3923 6127,3948 6096,3967 6134,3998 6169,4036 6202,4081 6286,4009 6352,3947 6398,3895 Z M 7119,2432 L 7484,2432 7484,4461 C 7484,4556 7473,4629 7451,4680 7430,4732 7392,4773 7339,4802 7253,4850 7093,4873 6861,4869 6847,4757 6810,4637 6750,4507 6834,4511 6938,4513 7062,4513 7100,4513 7119,4494 7119,4456 L 7119,2432 Z" />
				<rect fill="none" stroke="none" x="5034" y="2373" width="2451" height="2502" />
			</g>
			<g>
				<path fill="rgb(255,255,255)" stroke="none" d="M 2990,5609 L 2853,5609 2853,6009 2990,6009 2990,5609 Z M 2853,6777 L 2990,6777 2990,6343 2853,6343 2853,6777 Z M 3333,7118 L 2853,7118 2853,7363 2504,7363 2504,5268 3333,5268 3333,7118 Z M 3822,6343 L 3956,6343 C 3960,6303 3961,6244 3961,6167 L 3961,5831 3822,5831 3822,6343 Z M 4473,5831 L 4313,5831 4313,6169 C 4313,6245 4312,6303 4310,6343 L 4473,6343 4473,5831 Z M 4938,6686 L 4414,6686 C 4536,6998 4724,7212 4977,7327 4937,7363 4893,7411 4845,7472 4797,7532 4760,7586 4734,7635 4498,7504 4312,7284 4176,6976 4045,7263 3797,7476 3432,7614 3408,7573 3371,7523 3323,7464 3275,7405 3231,7361 3191,7330 3560,7199 3794,6984 3894,6686 L 3377,6686 3377,6343 3483,6343 3483,5490 3961,5490 3961,5141 4313,5141 4313,5490 4827,5490 4827,6343 4938,6343 4938,6686 Z" />
				<rect fill="none" stroke="none" x="2503" y="5141" width="2475" height="2495" />
			</g>
			<g>
				<path fill="rgb(255,255,255)" stroke="none" d="M 7072,7112 C 7072,6656 7072,6199 7072,5743 7196,5743 7320,5743 7444,5743 7444,6370 7444,6997 7444,7624 7320,7624 7196,7624 7072,7624 7072,7574 7072,7524 7072,7474 6573,7474 6074,7474 5576,7474 5576,7524 5576,7574 5576,7624 5452,7624 5328,7624 5204,7624 5204,6997 5204,6370 5204,5743 5328,5743 5452,5743 5576,5743 5576,6199 5576,6656 5576,7112 6074,7112 6573,7112 7072,7112 Z M 6625,6249 C 6625,6197 6625,6146 6625,6094 6576,6094 6527,6094 6478,6094 6478,6146 6478,6197 6478,6249 6527,6249 6576,6249 6625,6249 Z M 6625,6694 C 6625,6641 6625,6588 6625,6536 6576,6536 6527,6536 6478,6536 6478,6588 6478,6641 6478,6694 6527,6694 6576,6694 6625,6694 Z M 6007,6536 C 6007,6588 6007,6641 6007,6694 6055,6694 6102,6694 6149,6694 6149,6641 6149,6588 6149,6536 6102,6536 6055,6536 6007,6536 Z M 6007,6094 C 6007,6146 6007,6197 6007,6249 6055,6249 6102,6249 6149,6249 6149,6197 6149,6146 6149,6094 6102,6094 6055,6094 6007,6094 Z M 5121,5262 C 5924,5262 6727,5262 7529,5262 7529,5381 7529,5500 7529,5619 7189,5619 6849,5619 6509,5619 6509,5675 6509,5731 6509,5787 6657,5787 6805,5787 6953,5787 6953,6192 6953,6598 6953,7004 6534,7004 6114,7004 5695,7004 5695,6598 5695,6192 5695,5787 5836,5787 5977,5787 6118,5787 6118,5731 6118,5675 6118,5619 5786,5619 5453,5619 5121,5619 5121,5500 5121,5381 5121,5262 Z" />
				<rect fill="none" stroke="none" x="5121" y="5262" width="2409" height="2363" />
			</g>
		</g>
	</g>
</svg>
