<?xml version="1.0" encoding="UTF-8"?>

<svg version="1.2" baseProfile="tiny" width="100mm" height="100mm" viewBox="0 0 10000 10000" preserveAspectRatio="xMidYMid" fill-rule="evenodd" stroke-width="28.222" stroke-linejoin="miter" xmlns="http://www.w3.org/2000/svg" xmlns:xlink="http://www.w3.org/1999/xlink" xml:space="preserve">
	<g visibility="visible" id="MasterSlide_1_Default">
		<desc>Master slide
		</desc>
		<rect fill="none" stroke="none" x="0" y="0" width="10000" height="10000" />
	</g>
	<g visibility="visible" id="Slide_1_page20">
		<g>
			<path fill="rgb(255,102,102)" stroke="none" d="M 3000,1000 L 1000,3000 1000,7000 3000,9000 7000,9000 9000,7000 9000,3000 7000,1000 3000,1000 Z" />
			<path fill="none" stroke="rgb(255,153,153)" id="Drawing_1_0" stroke-width="1000" d="M 3000,1000 L 1000,3000 1000,7000 3000,9000 7000,9000 9000,7000 9000,3000 7000,1000 3000,1000 Z" />
		</g>
		<g id="DrawingGroup_1">
			<g>
				<path fill="rgb(255,255,255)" stroke="none" d="M 3383,4800 L 3274,4800 C 3258,5131 3202,5405 3107,5622 3146,5626 3194,5628 3249,5628 3283,5628 3309,5613 3330,5582 3357,5538 3375,5278 3383,4800 Z M 2908,4596 L 2908,4258 2691,4258 2691,3886 3032,3886 3032,3480 3457,3480 3457,3886 3752,3886 3752,4041 C 3853,3880 3928,3686 3978,3461 L 4359,3551 C 4341,3632 4318,3708 4291,3780 L 4843,3780 4843,4156 4133,4156 C 4115,4193 4087,4240 4049,4298 L 4549,4298 4623,4273 4859,4453 C 4745,4637 4640,4787 4542,4903 L 4862,4903 4862,5262 4527,5262 4527,5554 C 4527,5647 4518,5720 4499,5774 4480,5828 4443,5868 4387,5895 4305,5938 4161,5960 3956,5960 3944,5848 3903,5722 3832,5582 3903,5584 3988,5585 4090,5585 4123,5585 4139,5572 4139,5548 L 4139,5262 3829,5262 3829,4903 4139,4903 4139,4751 4254,4751 C 4287,4701 4312,4660 4328,4627 L 3897,4627 3897,4357 C 3858,4322 3810,4281 3752,4233 L 3752,4258 3277,4258 3277,4435 3773,4435 C 3771,4505 3770,4554 3770,4583 3762,5022 3751,5327 3738,5500 3724,5672 3700,5783 3665,5833 3617,5905 3552,5949 3470,5963 3412,5976 3316,5982 3181,5982 3173,5856 3145,5741 3098,5638 3048,5751 2980,5853 2893,5941 2864,5900 2823,5852 2769,5797 2715,5743 2669,5702 2629,5675 2815,5460 2908,5100 2908,4596 Z M 2648,4069 L 2254,4326 C 2184,4171 2052,3988 1857,3777 L 2223,3548 C 2432,3752 2574,3926 2648,4069 Z M 2623,4711 L 2623,5728 C 2724,5918 2929,6019 3237,6031 3433,6042 3707,6044 4057,6038 4408,6031 4700,6019 4933,6000 4865,6149 4819,6292 4797,6428 4247,6457 3727,6460 3237,6438 3047,6429 2889,6399 2764,6348 2639,6296 2531,6210 2440,6090 2347,6192 2221,6317 2062,6465 L 1848,6025 C 1995,5924 2111,5838 2195,5768 L 2195,5135 1901,5135 1901,4711 2623,4711 Z" />
				<rect fill="none" stroke="none" x="1848" y="3461" width="3086" height="3005" />
			</g>
			<g>
				<path fill="rgb(255,255,255)" stroke="none" d="M 8105,3948 L 7826,4038 C 7768,3846 7710,3690 7652,3570 L 7922,3480 C 7982,3598 8043,3754 8105,3948 Z M 7739,4066 L 7463,4156 C 7395,3929 7339,3771 7296,3685 L 7575,3598 C 7655,3798 7710,3954 7739,4066 Z M 6815,3926 L 7274,3784 C 7398,4319 7625,4754 7956,5089 L 7603,5464 C 7530,5369 7454,5259 7373,5133 7375,5308 7354,5474 7308,5629 7263,5784 7194,5924 7103,6049 7013,6174 6891,6273 6738,6345 6585,6417 6409,6453 6211,6453 5938,6453 5716,6372 5547,6209 5377,6045 5293,5826 5293,5551 5293,5342 5336,5131 5421,4916 5507,4701 5616,4516 5749,4361 5660,4369 5545,4387 5404,4416 5382,4421 5319,4435 5215,4460 L 5147,3970 C 5211,3970 5273,3967 5333,3961 5521,3946 5724,3921 5941,3886 6158,3851 6320,3815 6428,3778 L 6570,4196 C 6504,4223 6453,4248 6418,4271 6278,4382 6137,4556 5995,4793 5853,5030 5783,5261 5783,5486 5783,5629 5825,5739 5910,5818 5994,5896 6103,5936 6235,5936 6432,5936 6594,5861 6722,5711 6850,5561 6930,5350 6962,5077 6994,4804 6966,4475 6877,4091 6869,4070 6858,4041 6845,4004 6831,3967 6821,3941 6815,3926 Z" />
				<rect fill="none" stroke="none" x="5147" y="3480" width="2959" height="2974" />
			</g>
		</g>
	</g>
</svg>
