<?xml version="1.0" encoding="UTF-8"?>

<svg version="1.2" baseProfile="tiny" width="100mm" height="100mm" viewBox="0 0 10000 10000" preserveAspectRatio="xMidYMid" fill-rule="evenodd" stroke-width="28.222" stroke-linejoin="miter" xmlns="http://www.w3.org/2000/svg" xmlns:xlink="http://www.w3.org/1999/xlink" xml:space="preserve">
	<g visibility="visible" id="MasterSlide_1_Default">
		<desc>Master slide
		</desc>
		<rect fill="none" stroke="none" x="0" y="0" width="10000" height="10000" />
	</g>
	<g visibility="visible" id="Slide_1_page11">
		<g>
			<path fill="rgb(255,153,0)" stroke="none" d="M 3000,1000 L 1000,3000 1000,7000 3000,9000 7000,9000 9000,7000 9000,3000 7000,1000 3000,1000 Z" />
			<path fill="none" stroke="rgb(255,204,0)" id="Drawing_1_0" stroke-width="1000" d="M 3000,1000 L 1000,3000 1000,7000 3000,9000 7000,9000 9000,7000 9000,3000 7000,1000 3000,1000 Z" />
		</g>
		<g id="DrawingGroup_1">
			<g>
				<path fill="rgb(255,255,255)" stroke="none" d="M 3652,5074 C 3855,5074 4059,5074 4263,5074 4263,4875 4263,4677 4263,4478 4059,4478 3855,4478 3652,4478 3652,4677 3652,4875 3652,5074 Z M 2551,5074 C 2755,5074 2958,5074 3162,5074 3162,4875 3162,4677 3162,4478 2958,4478 2755,4478 2551,4478 2551,4677 2551,4875 2551,5074 Z M 3652,4026 C 4018,4026 4383,4026 4749,4026 4749,4576 4749,5125 4749,5675 4587,5675 4425,5675 4263,5675 4263,5626 4263,5576 4263,5526 4059,5526 3855,5526 3652,5526 3652,5850 3652,6173 3652,6497 3488,6497 3325,6497 3162,6497 3162,6173 3162,5850 3162,5526 2958,5526 2755,5526 2551,5526 2551,5581 2551,5636 2551,5691 2397,5691 2243,5691 2089,5691 2089,5136 2089,4581 2089,4026 2447,4026 2804,4026 3162,4026 3162,3844 3162,3662 3162,3480 3325,3480 3488,3480 3652,3480 3652,3662 3652,3844 3652,4026 Z" />
				<rect fill="none" stroke="none" x="2089" y="3480" width="2661" height="3018" />
			</g>
			<g>
				<path fill="rgb(255,255,255)" stroke="none" d="M 5431,3911 C 6204,3911 6977,3911 7750,3911 7750,4082 7750,4252 7750,4423 6977,4423 6204,4423 5431,4423 5431,4252 5431,4082 5431,3911 Z M 5167,5728 C 6116,5728 7065,5728 8013,5728 8013,5907 8013,6086 8013,6264 7065,6264 6116,6264 5167,6264 5167,6086 5167,5907 5167,5728 Z" />
				<rect fill="none" stroke="none" x="5167" y="3911" width="2847" height="2354" />
			</g>
		</g>
	</g>
</svg>
