<?xml version="1.0" encoding="UTF-8"?>

<svg version="1.2" baseProfile="tiny" width="100mm" height="100mm" viewBox="0 0 10000 10000" preserveAspectRatio="xMidYMid" fill-rule="evenodd" stroke-width="28.222" stroke-linejoin="miter" xmlns="http://www.w3.org/2000/svg" xmlns:xlink="http://www.w3.org/1999/xlink" xml:space="preserve">
	<g visibility="visible" id="MasterSlide_1_Default">
		<desc>Master slide
		</desc>
		<rect fill="none" stroke="none" x="0" y="0" width="10000" height="10000" />
	</g>
	<g visibility="visible" id="Slide_1_page12">
		<g>
			<path fill="rgb(255,153,0)" stroke="none" d="M 3000,1000 L 1000,3000 1000,7000 3000,9000 7000,9000 9000,7000 9000,3000 7000,1000 3000,1000 Z" />
			<path fill="none" stroke="rgb(255,204,0)" id="Drawing_1_0" stroke-width="1000" d="M 3000,1000 L 1000,3000 1000,7000 3000,9000 7000,9000 9000,7000 9000,3000 7000,1000 3000,1000 Z" />
		</g>
		<g id="DrawingGroup_1">
			<g>
				<path fill="rgb(255,255,255)" stroke="none" d="M 3652,5074 C 3855,5074 4059,5074 4263,5074 4263,4875 4263,4677 4263,4478 4059,4478 3855,4478 3652,4478 3652,4677 3652,4875 3652,5074 Z M 2551,5074 C 2755,5074 2958,5074 3162,5074 3162,4875 3162,4677 3162,4478 2958,4478 2755,4478 2551,4478 2551,4677 2551,4875 2551,5074 Z M 3652,4026 C 4018,4026 4383,4026 4749,4026 4749,4576 4749,5125 4749,5675 4587,5675 4425,5675 4263,5675 4263,5626 4263,5576 4263,5526 4059,5526 3855,5526 3652,5526 3652,5850 3652,6173 3652,6497 3488,6497 3325,6497 3162,6497 3162,6173 3162,5850 3162,5526 2958,5526 2755,5526 2551,5526 2551,5581 2551,5636 2551,5691 2397,5691 2243,5691 2089,5691 2089,5136 2089,4581 2089,4026 2447,4026 2804,4026 3162,4026 3162,3844 3162,3662 3162,3480 3325,3480 3488,3480 3652,3480 3652,3662 3652,3844 3652,4026 Z" />
				<rect fill="none" stroke="none" x="2089" y="3480" width="2661" height="3018" />
			</g>
			<g>
				<path fill="rgb(255,255,255)" stroke="none" d="M 5372,3784 C 6182,3784 6992,3784 7803,3784 7803,3941 7803,4098 7803,4255 6992,4255 6182,4255 5372,4255 5372,4098 5372,3941 5372,3784 Z M 5601,4795 C 6249,4795 6897,4795 7545,4795 7545,4952 7545,5109 7545,5266 6897,5266 6249,5266 5601,5266 5601,5109 5601,4952 5601,4795 Z M 5192,5855 C 6117,5855 7042,5855 7967,5855 7967,6013 7967,6171 7967,6330 7042,6330 6117,6330 5192,6330 5192,6171 5192,6013 5192,5855 Z" />
				<rect fill="none" stroke="none" x="5192" y="3784" width="2776" height="2547" />
			</g>
		</g>
	</g>
</svg>
