<?xml version="1.0" encoding="UTF-8"?>

<svg version="1.2" baseProfile="tiny" width="100mm" height="100mm" viewBox="0 0 10000 10000" preserveAspectRatio="xMidYMid" fill-rule="evenodd" stroke-width="28.222" stroke-linejoin="miter" xmlns="http://www.w3.org/2000/svg" xmlns:xlink="http://www.w3.org/1999/xlink" xml:space="preserve">
	<g visibility="visible" id="MasterSlide_1_Default">
		<desc>Master slide
		</desc>
		<rect fill="none" stroke="none" x="0" y="0" width="10000" height="10000" />
	</g>
	<g visibility="visible" id="Slide_1_page26">
		<g>
			<path fill="rgb(153,51,255)" stroke="none" d="M 3000,1000 L 1000,3000 1000,7000 3000,9000 7000,9000 9000,7000 9000,3000 7000,1000 3000,1000 Z" />
			<path fill="none" stroke="rgb(153,153,255)" id="Drawing_1_0" stroke-width="1000" d="M 3000,1000 L 1000,3000 1000,7000 3000,9000 7000,9000 9000,7000 9000,3000 7000,1000 3000,1000 Z" />
		</g>
		<g id="DrawingGroup_1">
			<g>
				<path fill="rgb(255,255,255)" stroke="none" d="M 3080,4188 L 2670,4188 2629,4248 C 2663,4256 2716,4269 2788,4286 2860,4303 2913,4316 2949,4324 2998,4290 3041,4245 3080,4188 Z M 3032,3553 L 3032,3806 2780,3806 2893,3834 C 2856,3894 2835,3928 2829,3938 L 3857,3938 3857,4188 3429,4188 C 3379,4282 3328,4357 3276,4413 3499,4475 3669,4526 3787,4566 L 3601,4821 C 3443,4759 3244,4691 3001,4618 2798,4719 2485,4786 2060,4821 2037,4721 1997,4632 1940,4554 2194,4546 2395,4526 2544,4494 L 2472,4473 2461,4490 2164,4401 C 2200,4357 2251,4286 2317,4188 L 1911,4188 1911,3938 2480,3938 C 2490,3923 2502,3903 2517,3878 2532,3853 2546,3831 2559,3811 2571,3791 2582,3772 2592,3756 L 2726,3793 2726,3545 C 2544,3717 2319,3843 2052,3921 2033,3885 2005,3844 1967,3797 1930,3750 1896,3713 1866,3684 2071,3641 2253,3570 2410,3471 L 1932,3471 1932,3225 2726,3225 2726,3125 C 2569,3134 2377,3138 2151,3138 2146,3072 2124,2994 2087,2906 2677,2903 3127,2870 3437,2807 L 3658,3020 C 3476,3059 3268,3087 3032,3107 L 3032,3225 3822,3225 3822,3471 3352,3471 C 3514,3562 3692,3627 3888,3667 3812,3736 3747,3820 3694,3919 3434,3845 3214,3723 3032,3553 Z" />
				<rect fill="none" stroke="none" x="1866" y="2806" width="2023" height="2016" />
			</g>
			<g>
				<path fill="rgb(255,255,255)" stroke="none" d="M 5391,3194 L 5391,3103 4616,3103 4616,3194 5391,3194 Z M 5720,2867 L 5720,3429 4306,3429 4306,2867 5720,2867 Z M 4513,4180 L 4513,4238 5470,4238 5470,4180 4513,4180 Z M 4513,3934 L 4513,3990 5470,3990 5470,3934 4513,3934 Z M 4513,3688 L 4513,3744 5470,3744 5470,3688 4513,3688 Z M 5792,4442 L 5528,4442 C 5707,4497 5872,4553 6022,4608 L 5747,4823 C 5557,4737 5327,4657 5057,4581 L 5251,4442 4717,4442 4891,4566 C 4705,4673 4485,4757 4232,4819 4163,4743 4085,4670 3998,4599 4150,4571 4313,4518 4488,4442 L 4207,4442 4207,3483 5792,3483 5792,4442 Z" />
				<rect fill="none" stroke="none" x="3997" y="2867" width="2026" height="1957" />
			</g>
			<g>
				<path fill="rgb(255,255,255)" stroke="none" d="M 6794,3438 L 7457,3438 C 7313,3328 7200,3218 7118,3108 7036,3218 6927,3328 6794,3438 Z M 6626,3720 L 6626,3562 C 6515,3640 6400,3706 6281,3761 6238,3671 6177,3585 6097,3502 6271,3429 6435,3328 6589,3199 6743,3069 6861,2941 6943,2814 L 7269,2814 C 7497,3125 7790,3340 8150,3457 8095,3513 8028,3607 7949,3738 7839,3687 7726,3623 7610,3546 L 7610,3720 6626,3720 Z M 7488,4131 L 7077,4131 C 7065,4154 7048,4187 7026,4230 7005,4273 6985,4311 6967,4346 6949,4380 6932,4412 6916,4441 6990,4438 7162,4432 7433,4422 7376,4360 7320,4303 7265,4249 L 7488,4131 Z M 8005,4131 L 7567,4131 C 7656,4212 7742,4299 7823,4392 7905,4485 7968,4570 8013,4646 L 7726,4819 C 7721,4807 7695,4766 7650,4695 7220,4719 6766,4741 6289,4764 L 6248,4462 C 6299,4460 6407,4457 6572,4451 6618,4356 6659,4249 6697,4131 L 6242,4131 6242,3846 8005,3846 8005,4131 Z" />
				<rect fill="none" stroke="none" x="6097" y="2814" width="2054" height="2006" />
			</g>
			<g>
				<path fill="rgb(255,255,255)" stroke="none" d="M 3049,6820 L 3853,6820 3853,7122 1926,7122 1926,6820 2726,6820 2726,6456 2178,6456 2178,6160 2726,6160 2726,5836 2321,5836 C 2252,5961 2191,6057 2137,6123 2060,6057 1967,5995 1858,5937 1938,5852 2011,5742 2076,5608 2142,5475 2193,5335 2230,5189 L 2549,5261 C 2529,5334 2498,5426 2455,5536 L 2726,5536 2726,5166 3049,5166 3049,5536 3741,5536 3741,5836 3049,5836 3049,6160 3657,6160 3657,6456 3049,6456 3049,6820 Z" />
				<rect fill="none" stroke="none" x="1858" y="5166" width="1996" height="1958" />
			</g>
			<g>
				<path fill="rgb(255,255,255)" stroke="none" d="M 4385,5166 L 4655,5276 C 4584,5372 4502,5469 4409,5565 4317,5661 4228,5741 4143,5805 4090,5718 4037,5643 3983,5579 4057,5528 4131,5464 4207,5385 4283,5307 4342,5234 4385,5166 Z M 5493,6588 L 5493,6867 C 5531,6872 5572,6874 5615,6874 5824,6874 5963,6872 6030,6870 5986,6948 5957,7041 5943,7149 L 5590,7149 C 5444,7149 5318,7130 5211,7093 5105,7056 5014,6991 4939,6898 4890,7016 4832,7111 4765,7184 4707,7122 4631,7059 4538,6996 L 4538,7180 4252,7180 4252,6334 C 4210,6377 4167,6415 4126,6448 4081,6338 4028,6241 3969,6158 4056,6095 4140,6017 4220,5924 4301,5831 4366,5735 4416,5637 L 4684,5737 C 4644,5815 4595,5898 4538,5985 L 4538,6981 C 4673,6845 4748,6597 4765,6239 L 5065,6262 C 5059,6349 5047,6448 5028,6561 5072,6655 5129,6727 5199,6776 L 5199,6103 4660,6103 4660,5834 5183,5834 5183,5648 4755,5648 4755,5387 5183,5387 5183,5166 5474,5166 5474,5387 5908,5387 5908,5648 5474,5648 5474,5834 6003,5834 6003,6103 5493,6103 5493,6326 5921,6326 5921,6588 5493,6588 Z" />
				<rect fill="none" stroke="none" x="3969" y="5166" width="2062" height="2019" />
			</g>
			<g>
				<path fill="rgb(255,255,255)" stroke="none" d="M 6794,5797 L 7457,5797 C 7313,5687 7200,5577 7118,5467 7036,5577 6927,5687 6794,5797 Z M 6626,6079 L 6626,5921 C 6515,5999 6400,6065 6281,6120 6238,6030 6177,5944 6097,5861 6271,5788 6435,5687 6589,5558 6743,5428 6861,5300 6943,5173 L 7269,5173 C 7497,5484 7790,5699 8150,5816 8095,5872 8028,5966 7949,6097 7839,6046 7726,5982 7610,5905 L 7610,6079 6626,6079 Z M 7488,6490 L 7077,6490 C 7065,6513 7048,6546 7026,6589 7005,6632 6985,6670 6967,6705 6949,6739 6932,6771 6916,6800 6990,6797 7162,6791 7433,6781 7376,6719 7320,6662 7265,6608 L 7488,6490 Z M 8005,6490 L 7567,6490 C 7656,6571 7742,6658 7823,6751 7905,6844 7968,6929 8013,7005 L 7726,7178 C 7721,7166 7695,7125 7650,7054 7220,7078 6766,7100 6289,7123 L 6248,6821 C 6299,6819 6407,6816 6572,6810 6618,6715 6659,6608 6697,6490 L 6242,6490 6242,6205 8005,6205 8005,6490 Z" />
				<rect fill="none" stroke="none" x="6097" y="5173" width="2054" height="2006" />
			</g>
		</g>
	</g>
</svg>
