<?xml version="1.0" encoding="UTF-8"?>

<svg version="1.2" baseProfile="tiny" width="100mm" height="100mm" viewBox="0 0 10000 10000" preserveAspectRatio="xMidYMid" fill-rule="evenodd" stroke-width="28.222" stroke-linejoin="miter" xmlns="http://www.w3.org/2000/svg" xmlns:xlink="http://www.w3.org/1999/xlink" xml:space="preserve">
	<g visibility="visible" id="MasterSlide_1_Default">
		<desc>Master slide
		</desc>
		<rect fill="none" stroke="none" x="0" y="0" width="10000" height="10000" />
	</g>
	<g visibility="visible" id="Slide_1_page25">
		<g>
			<path fill="rgb(153,51,255)" stroke="none" d="M 3000,1000 L 1000,3000 1000,7000 3000,9000 7000,9000 9000,7000 9000,3000 7000,1000 3000,1000 Z" />
			<path fill="none" stroke="rgb(153,153,255)" id="Drawing_1_0" stroke-width="1000" d="M 3000,1000 L 1000,3000 1000,7000 3000,9000 7000,9000 9000,7000 9000,3000 7000,1000 3000,1000 Z" />
		</g>
		<g id="DrawingGroup_1">
			<g>
				<path fill="rgb(255,255,255)" stroke="none" d="M 3697,3145 L 3957,3306 C 3916,3379 3889,3437 3875,3480 3785,3753 3663,3984 3509,4174 3403,4304 3281,4418 3145,4517 3009,4615 2843,4704 2649,4784 L 2345,4514 C 2556,4449 2725,4375 2854,4291 2982,4208 3097,4108 3201,3993 3266,3921 3325,3833 3380,3728 3434,3623 3468,3535 3482,3463 L 2955,3463 C 2794,3665 2616,3833 2421,3970 L 2132,3755 C 2248,3683 2353,3604 2446,3516 2540,3428 2609,3355 2653,3297 2697,3238 2743,3170 2791,3093 2842,3012 2880,2928 2903,2841 L 3277,2963 C 3240,3014 3197,3084 3147,3174 L 3488,3174 C 3563,3174 3632,3164 3697,3145 Z" />
				<rect fill="none" stroke="none" x="2132" y="2841" width="1826" height="1945" />
			</g>
			<g>
				<path fill="rgb(255,255,255)" stroke="none" d="M 5640,3474 L 5868,3616 C 5847,3655 5832,3689 5822,3717 5738,3960 5633,4152 5506,4294 5308,4519 5055,4675 4749,4764 L 4493,4472 C 4804,4406 5048,4285 5223,4110 5312,4021 5378,3919 5419,3804 L 4456,3804 C 4357,3804 4267,3808 4187,3815 L 4187,3484 C 4300,3493 4390,3498 4456,3498 L 5463,3498 C 5544,3498 5603,3490 5640,3474 Z M 4385,3298 L 4385,2967 C 4446,2975 4525,2979 4623,2979 L 5425,2979 C 5530,2979 5613,2975 5676,2967 L 5676,3298 C 5596,3292 5511,3290 5421,3290 L 4623,3290 C 4521,3290 4442,3292 4385,3298 Z" />
				<rect fill="none" stroke="none" x="4187" y="2967" width="1682" height="1798" />
			</g>
			<g>
				<path fill="rgb(255,255,255)" stroke="none" d="M 7675,3101 L 7598,3132 7751,3229 C 7735,3265 7716,3321 7695,3399 7606,3745 7500,4000 7377,4166 7279,4297 7156,4414 7009,4517 6861,4620 6697,4702 6515,4761 L 6236,4453 C 6590,4374 6867,4212 7067,3965 7188,3816 7266,3634 7300,3417 L 6368,3417 C 6296,3417 6205,3421 6093,3430 L 6093,3066 C 6203,3080 6295,3086 6368,3086 L 7302,3086 C 7348,3086 7384,3085 7410,3082 7389,3042 7355,2984 7309,2907 L 7515,2822 C 7579,2914 7632,3007 7675,3101 Z M 7615,2851 L 7825,2766 C 7885,2851 7941,2945 7993,3047 L 7782,3136 C 7710,3001 7655,2906 7615,2851 Z" />
				<rect fill="none" stroke="none" x="6093" y="2766" width="1902" height="1996" />
			</g>
			<g>
				<path fill="rgb(255,255,255)" stroke="none" d="M 3039,6296 L 2731,6296 2731,6529 3039,6529 3039,6296 Z M 3322,6781 L 2731,6781 2731,6914 2450,6914 2450,6045 3322,6045 3322,6781 Z M 3405,5663 L 3405,5919 2355,5919 2355,5663 3405,5663 Z M 3802,5264 L 3802,6837 C 3802,6916 3793,6977 3776,7021 3759,7065 3728,7099 3684,7123 3616,7161 3487,7180 3295,7180 3281,7072 3248,6970 3194,6877 3260,6881 3346,6883 3450,6883 3483,6881 3500,6865 3500,6833 L 3500,5553 2268,5553 2268,7178 1970,7178 1970,5264 3802,5264 Z" />
				<rect fill="none" stroke="none" x="1970" y="5264" width="1833" height="1917" />
			</g>
			<g>
				<path fill="rgb(255,255,255)" stroke="none" d="M 4564,5863 L 4440,5863 C 4433,5896 4403,6036 4351,6282 4384,6303 4420,6329 4458,6359 4507,6222 4542,6057 4564,5863 Z M 4686,5573 L 4870,5602 C 4849,5992 4794,6307 4705,6545 4802,6628 4876,6701 4926,6766 L 4742,7012 C 4711,6968 4654,6903 4568,6818 4473,6968 4349,7091 4196,7186 4177,7147 4149,7105 4113,7058 4077,7011 4044,6973 4014,6944 4145,6875 4254,6768 4341,6621 L 4281,6574 4268,6626 4018,6495 C 4050,6381 4097,6170 4159,5863 L 4014,5863 4014,5579 4212,5579 C 4237,5438 4259,5300 4279,5166 L 4566,5197 C 4552,5278 4529,5406 4496,5579 L 4634,5579 4686,5573 Z M 6005,6003 L 6005,6293 5560,6293 5560,6851 C 5560,6925 5552,6983 5535,7025 5517,7066 5487,7099 5443,7124 5368,7162 5248,7180 5081,7178 5066,7092 5030,6992 4973,6878 5090,6883 5168,6885 5207,6882 5237,6882 5252,6870 5252,6847 L 5252,6293 4833,6293 4833,6003 5252,6003 5252,5776 5343,5776 C 5392,5721 5444,5647 5500,5555 L 4905,5555 4905,5274 5691,5274 5755,5255 5953,5408 C 5817,5616 5686,5785 5560,5914 L 5560,6003 6005,6003 Z" />
				<rect fill="none" stroke="none" x="4014" y="5166" width="1993" height="2021" />
			</g>
			<g>
				<path fill="rgb(255,255,255)" stroke="none" d="M 6794,5797 L 7457,5797 C 7313,5687 7200,5577 7118,5467 7036,5577 6927,5687 6794,5797 Z M 6626,6079 L 6626,5921 C 6515,5999 6400,6065 6281,6120 6238,6030 6177,5944 6097,5861 6271,5788 6435,5687 6589,5558 6743,5428 6861,5300 6943,5173 L 7269,5173 C 7497,5484 7790,5699 8150,5816 8095,5872 8028,5966 7949,6097 7839,6046 7726,5982 7610,5905 L 7610,6079 6626,6079 Z M 7488,6490 L 7077,6490 C 7065,6513 7048,6546 7026,6589 7005,6632 6985,6670 6967,6705 6949,6739 6932,6771 6916,6800 6990,6797 7162,6791 7433,6781 7376,6719 7320,6662 7265,6608 L 7488,6490 Z M 8005,6490 L 7567,6490 C 7656,6571 7742,6658 7823,6751 7905,6844 7968,6929 8013,7005 L 7726,7178 C 7721,7166 7695,7125 7650,7054 7220,7078 6766,7100 6289,7123 L 6248,6821 C 6299,6819 6407,6816 6572,6810 6618,6715 6659,6608 6697,6490 L 6242,6490 6242,6205 8005,6205 8005,6490 Z" />
				<rect fill="none" stroke="none" x="6097" y="5173" width="2054" height="2006" />
			</g>
		</g>
	</g>
</svg>
