<?xml version="1.0" encoding="UTF-8"?>

<svg version="1.2" baseProfile="tiny" width="100mm" height="100mm" viewBox="0 0 10000 10000" preserveAspectRatio="xMidYMid" fill-rule="evenodd" stroke-width="28.222" stroke-linejoin="miter" xmlns="http://www.w3.org/2000/svg" xmlns:xlink="http://www.w3.org/1999/xlink" xml:space="preserve">
	<g visibility="visible" id="MasterSlide_1_Default">
		<desc>Master slide
		</desc>
		<rect fill="none" stroke="none" x="0" y="0" width="10000" height="10000" />
	</g>
	<g visibility="visible" id="Slide_1_page27">
		<g>
			<path fill="rgb(153,51,255)" stroke="none" d="M 3000,1000 L 1000,3000 1000,7000 3000,9000 7000,9000 9000,7000 9000,3000 7000,1000 3000,1000 Z" />
			<path fill="none" stroke="rgb(153,153,255)" id="Drawing_1_0" stroke-width="1000" d="M 3000,1000 L 1000,3000 1000,7000 3000,9000 7000,9000 9000,7000 9000,3000 7000,1000 3000,1000 Z" />
		</g>
		<g id="DrawingGroup_1">
			<g>
				<path fill="rgb(255,255,255)" stroke="none" d="M 4049,4999 L 4049,4866 2997,4866 2997,4999 4049,4999 Z M 2997,5517 L 4049,5517 4049,5381 2997,5381 2997,5517 Z M 4845,4283 L 3149,4283 C 3147,4287 3115,4348 3053,4466 L 4498,4466 4498,6023 C 4498,6134 4485,6221 4459,6283 4433,6345 4386,6394 4318,6429 4254,6462 4180,6482 4095,6491 4010,6499 3892,6503 3742,6503 3723,6358 3677,6211 3605,6060 3696,6066 3820,6069 3977,6069 4025,6069 4049,6050 4049,6013 L 4049,5899 2997,5899 2997,6494 2539,6494 2539,5185 C 2425,5305 2307,5408 2185,5492 2096,5364 1993,5245 1875,5136 2175,4942 2425,4657 2625,4283 L 1984,4283 1984,3849 2824,3849 C 2865,3733 2902,3609 2935,3477 L 3416,3586 C 3410,3604 3380,3692 3326,3849 L 4845,3849 4845,4283 Z" />
				<rect fill="none" stroke="none" x="1875" y="3477" width="2971" height="3027" />
			</g>
			<g>
				<path fill="rgb(255,255,255)" stroke="none" d="M 6340,4593 L 6340,4274 5161,4274 5161,3840 6340,3840 6340,3480 6808,3480 6808,3840 8023,3840 8023,4274 6808,4274 6808,4593 7828,4593 7828,5027 6609,5027 C 6791,5139 6924,5241 7006,5334 L 6675,5641 C 6623,5577 6544,5503 6437,5418 6331,5333 6226,5261 6123,5201 L 6321,5027 5369,5027 5369,4593 6340,4593 Z M 5447,6345 L 5056,6091 C 5242,5919 5367,5679 5431,5371 L 5847,5502 C 5754,5894 5620,6175 5447,6345 Z M 6510,6032 L 6864,6032 C 6922,6032 6959,6013 6977,5974 6994,5936 7007,5848 7016,5709 7061,5742 7124,5775 7205,5807 7285,5839 7359,5861 7425,5874 7400,6095 7351,6244 7278,6322 7204,6399 7080,6438 6904,6438 L 6451,6438 C 6230,6438 6082,6401 6006,6328 5931,6254 5893,6119 5893,5920 L 5893,5356 6349,5356 6349,5914 C 6349,5966 6358,5998 6377,6012 6395,6025 6440,6032 6510,6032 Z M 7189,5492 L 7571,5294 C 7837,5596 8013,5864 8098,6100 L 7676,6323 C 7641,6210 7578,6075 7487,5920 7396,5765 7297,5623 7189,5492 Z" />
				<rect fill="none" stroke="none" x="5056" y="3480" width="3044" height="2959" />
			</g>
		</g>
	</g>
</svg>
