<?xml version="1.0" encoding="UTF-8"?>

<svg version="1.2" baseProfile="tiny" width="100mm" height="100mm" viewBox="0 0 10000 10000" preserveAspectRatio="xMidYMid" fill-rule="evenodd" stroke-width="28.222" stroke-linejoin="miter" xmlns="http://www.w3.org/2000/svg" xmlns:xlink="http://www.w3.org/1999/xlink" xml:space="preserve">
	<g visibility="visible" id="MasterSlide_1_Default">
		<desc>Master slide
		</desc>
		<rect fill="none" stroke="none" x="0" y="0" width="10000" height="10000" />
	</g>
	<g visibility="visible" id="Slide_1_page24">
		<g>
			<path fill="rgb(153,51,255)" stroke="none" d="M 3000,1000 L 1000,3000 1000,7000 3000,9000 7000,9000 9000,7000 9000,3000 7000,1000 3000,1000 Z" />
			<path fill="none" stroke="rgb(153,153,255)" id="Drawing_1_0" stroke-width="1000" d="M 3000,1000 L 1000,3000 1000,7000 3000,9000 7000,9000 9000,7000 9000,3000 7000,1000 3000,1000 Z" />
		</g>
		<g id="DrawingGroup_1">
			<g>
				<path fill="rgb(255,255,255)" stroke="none" d="M 3298,3405 L 3298,3680 3009,3680 3009,3136 3277,3136 C 3241,3071 3199,3007 3149,2944 L 3412,2828 C 3507,2933 3569,3023 3600,3099 L 3517,3136 3796,3136 C 3765,3053 3725,2973 3676,2896 L 3949,2795 C 4029,2903 4084,3002 4113,3093 L 3997,3136 4288,3136 C 4360,3026 4414,2922 4450,2824 L 4786,2919 C 4722,3011 4669,3084 4627,3136 L 4884,3136 4884,3680 4580,3680 4580,3405 3298,3405 Z M 4900,4009 L 4900,4290 4102,4290 4102,4503 C 4102,4580 4091,4639 4069,4680 4047,4722 4008,4753 3953,4776 3872,4806 3729,4821 3525,4821 3505,4726 3464,4627 3403,4523 3482,4527 3592,4530 3732,4530 3753,4530 3767,4527 3775,4521 3782,4516 3786,4506 3786,4492 L 3786,4290 2992,4290 2992,4009 3786,4009 3786,3882 3920,3882 C 3957,3856 3992,3829 4024,3802 L 3385,3802 3385,3537 4294,3537 4361,3523 4553,3670 C 4433,3805 4306,3918 4172,4009 L 4900,4009 Z" />
				<rect fill="none" stroke="none" x="2992" y="2794" width="1909" height="2028" />
			</g>
			<g>
				<path fill="rgb(255,255,255)" stroke="none" d="M 5714,4089 L 6022,4089 6022,3826 5714,3826 5714,4089 Z M 6022,3324 L 5603,3324 C 5557,3403 5509,3475 5460,3541 L 6022,3541 6022,3324 Z M 7041,4089 L 7041,4385 6339,4385 6339,4819 6022,4819 6022,4385 5077,4385 5077,4089 5406,4089 5406,3614 C 5373,3652 5348,3680 5330,3698 5244,3618 5156,3551 5065,3496 5156,3417 5239,3316 5315,3191 5391,3066 5450,2935 5493,2799 L 5807,2880 C 5796,2913 5777,2962 5749,3028 L 6917,3028 6917,3324 6339,3324 6339,3541 6866,3541 6866,3826 6339,3826 6339,4089 7041,4089 Z" />
				<rect fill="none" stroke="none" x="5065" y="2799" width="1977" height="2021" />
			</g>
			<g>
				<path fill="rgb(255,255,255)" stroke="none" d="M 3661,5504 L 3921,5665 C 3880,5738 3853,5796 3839,5839 3749,6112 3627,6343 3473,6533 3367,6663 3245,6777 3109,6876 2973,6974 2807,7063 2613,7143 L 2309,6873 C 2520,6808 2689,6734 2818,6650 2946,6567 3061,6467 3165,6352 3230,6280 3289,6192 3344,6087 3398,5982 3432,5894 3446,5822 L 2919,5822 C 2758,6024 2580,6192 2385,6329 L 2096,6114 C 2212,6042 2317,5963 2410,5875 2504,5787 2573,5714 2617,5656 2661,5597 2707,5529 2755,5452 2806,5371 2844,5287 2867,5200 L 3241,5322 C 3204,5373 3161,5443 3111,5533 L 3452,5533 C 3527,5533 3596,5523 3661,5504 Z" />
				<rect fill="none" stroke="none" x="2096" y="5200" width="1826" height="1944" />
			</g>
			<g>
				<path fill="rgb(255,255,255)" stroke="none" d="M 5604,5833 L 5832,5975 C 5811,6014 5796,6048 5786,6076 5702,6319 5597,6511 5470,6653 5272,6878 5019,7034 4713,7123 L 4457,6831 C 4768,6765 5012,6644 5187,6469 5276,6380 5342,6278 5383,6163 L 4420,6163 C 4321,6163 4231,6167 4151,6174 L 4151,5843 C 4264,5852 4354,5857 4420,5857 L 5427,5857 C 5508,5857 5567,5849 5604,5833 Z M 4349,5657 L 4349,5326 C 4410,5334 4489,5338 4587,5338 L 5389,5338 C 5494,5338 5577,5334 5640,5326 L 5640,5657 C 5560,5651 5475,5649 5385,5649 L 4587,5649 C 4485,5649 4406,5651 4349,5657 Z" />
				<rect fill="none" stroke="none" x="4151" y="5326" width="1682" height="1798" />
			</g>
			<g>
				<path fill="rgb(255,255,255)" stroke="none" d="M 7529,5377 L 7738,5532 C 7700,5587 7671,5638 7651,5685 7556,5897 7450,6084 7332,6245 7430,6331 7535,6431 7648,6547 7760,6663 7846,6759 7907,6835 L 7614,7091 C 7480,6902 7311,6709 7107,6512 6864,6763 6606,6955 6332,7089 L 6063,6812 C 6224,6754 6383,6669 6540,6557 6696,6446 6826,6332 6929,6216 7078,6048 7177,5889 7227,5739 L 6567,5739 C 6547,5739 6456,5744 6297,5755 L 6297,5391 C 6377,5402 6467,5408 6567,5408 L 7274,5408 C 7382,5408 7467,5398 7529,5377 Z" />
				<rect fill="none" stroke="none" x="6063" y="5376" width="1845" height="1716" />
			</g>
		</g>
	</g>
</svg>
