<?xml version="1.0" encoding="UTF-8"?>

<svg version="1.2" baseProfile="tiny" width="100mm" height="100mm" viewBox="0 0 10000 10000" preserveAspectRatio="xMidYMid" fill-rule="evenodd" stroke-width="28.222" stroke-linejoin="miter" xmlns="http://www.w3.org/2000/svg" xmlns:xlink="http://www.w3.org/1999/xlink" xml:space="preserve">
 <g visibility="visible" id="MasterSlide_1_Default">
  <desc>Master slide
  </desc>
  <rect fill="none" stroke="none" x="0" y="0" width="10000" height="10000"/>
 </g>
 <g visibility="visible" id="Slide_1_page1">
  <g>
   <path fill="none" stroke="rgb(255,255,255)" id="Drawing_1_0" stroke-width="1000" d="M 4000,7500 C 3356,7500 2808,7353 2250,7031 1692,6709 1291,6308 969,5750 647,5192 500,4644 500,4000 500,3356 647,2808 969,2250 1291,1692 1692,1291 2250,969 2808,647 3356,500 4000,500 4644,500 5192,647 5750,969 6308,1291 6709,1692 7031,2250 7353,2808 7500,3356 7500,4000 7500,4644 7353,5192 7031,5750 6709,6308 6308,6709 5750,7031 5192,7353 4644,7500 4000,7500 L 4000,7500 Z"/>
  </g>
  <g>
   <path fill="none" stroke="rgb(255,255,255)" id="Drawing_2_0" stroke-width="1000" stroke-linejoin="round" d="M 9500,9500 L 6500,6500"/>
  </g>
 </g>
</svg>