<?xml version="1.0" encoding="UTF-8"?>

<svg version="1.2" baseProfile="tiny" width="100mm" height="100mm" viewBox="0 0 10000 10000" preserveAspectRatio="xMidYMid" fill-rule="evenodd" stroke-width="28.222" stroke-linejoin="miter" xmlns="http://www.w3.org/2000/svg" xmlns:xlink="http://www.w3.org/1999/xlink" xml:space="preserve">
 <g visibility="visible" id="MasterSlide_1_Default">
  <desc>Master slide
  </desc>
  <rect fill="none" stroke="none" x="0" y="0" width="10000" height="10000"/>
 </g>
 <g visibility="visible" id="Slide_1_page5">
  <g>
   <path fill="none" stroke="rgb(255,255,255)" id="Drawing_1_0" stroke-width="1000" d="M 5000,8500 L 1500,8500 1500,1500 8500,1500 8500,8500 5000,8500 Z"/>
  </g>
  <g>
   <path fill="rgb(255,255,255)" stroke="none" d="M 1500,7000 L 1500,8500 8500,8500 8500,8000 6500,5500 5500,6500 4000,4500 1500,7000 Z"/>
   <rect fill="none" stroke="none" x="1500" y="4500" width="7002" height="4001"/>
  </g>
  <g>
   <path fill="rgb(255,255,255)" stroke="none" d="M 6250,4500 C 6112,4500 5995,4469 5875,4400 5755,4330 5670,4245 5600,4125 5531,4005 5500,3888 5500,3750 5500,3612 5531,3495 5600,3375 5670,3255 5755,3170 5875,3100 5995,3031 6112,3000 6250,3000 6388,3000 6505,3031 6625,3100 6745,3170 6830,3255 6900,3375 6969,3495 7000,3612 7000,3750 7000,3888 6969,4005 6900,4125 6830,4245 6745,4330 6625,4400 6505,4469 6388,4500 6250,4500 L 6250,4500 Z"/>
   <rect fill="none" stroke="none" x="5500" y="3000" width="1501" height="1501"/>
  </g>
 </g>
</svg>